<?xml version="1.0" encoding="UTF-8" standalone="no"?>
<!DOCTYPE svg PUBLIC "-//W3C//DTD SVG 1.1//EN" "http://www.w3.org/Graphics/SVG/1.1/DTD/svg11.dtd">
<svg version="1.1" xmlns="http://www.w3.org/2000/svg" xmlns:xlink="http://www.w3.org/1999/xlink" preserveAspectRatio="xMidYMid meet" viewBox="0 0 60 60" width="30" height="30"><defs><path d="M55.12 0.55C57.19 0.55 58.87 2.23 58.87 4.3C58.87 15.23 58.87 44.29 58.87 55.22C58.87 57.29 57.19 58.97 55.12 58.97C44.3 58.97 15.61 58.97 4.79 58.97C2.72 58.97 1.04 57.29 1.04 55.22C1.04 44.29 1.04 15.23 1.04 4.3C1.04 2.23 2.72 0.55 4.79 0.55C15.61 0.55 44.3 0.55 55.12 0.55Z" id="cE5Vj87PU"></path><path d="M48.69 8.92C50.76 8.92 52.44 10.6 52.44 12.67C52.44 20.61 52.44 40.65 52.44 48.59C52.44 50.66 50.76 52.34 48.69 52.34C40.44 52.34 19.45 52.34 11.2 52.34C9.13 52.34 7.45 50.66 7.45 48.59C7.45 40.65 7.45 20.61 7.45 12.67C7.45 10.6 9.13 8.92 11.2 8.92C19.45 8.92 40.44 8.92 48.69 8.92Z" id="cOpH9pDKX"></path><path d="M27.6 8.92L32.32 8.92L32.32 52.34L27.6 52.34L27.6 8.92Z" id="a1gieQgVtV"></path><path d="M9.13 31.95L17.17 17.09L25.21 31.95L20.11 31.95L20.11 47.71L14.21 47.71L14.21 31.95L9.13 31.95Z" id="ewLqa1yJs"></path><path d="M50.76 32.85L42.72 47.71L34.68 32.85L39.77 32.85L39.77 17.09L45.67 17.09L45.67 32.85L50.76 32.85Z" id="b4cfM3Vnur"></path></defs><g><g><g><use xlink:href="#cE5Vj87PU" opacity="1" fill="#000000" fill-opacity="1"></use></g><g><use xlink:href="#cOpH9pDKX" opacity="1" fill="#f2f2f2" fill-opacity="1"></use></g><g><use xlink:href="#a1gieQgVtV" opacity="1" fill="#000000" fill-opacity="1"></use></g><g><use xlink:href="#ewLqa1yJs" opacity="1" fill="#000000" fill-opacity="1"></use></g><g><use xlink:href="#b4cfM3Vnur" opacity="1" fill="#000000" fill-opacity="1"></use></g></g></g></svg>